#!OML:ASF C:\Vicon Data\Big\jianyuan-13\jianyuan\Session 1\Capture.male.ASF
:FULLY-SPECIFIED
:DEGREES
70
root -8.427489 17.709051 -20.710938 10.479523 -7.700151 0.639212
lowerback -10.479259 0.339183 -2.702239 
upperback 2.741152 0.842545 -0.165823 
thorax 8.781700 0.268432 1.497418 
lowerneck -4.240473 -1.294281 2.446288 
upperneck 22.669696 -1.446840 -3.015905 
head 7.604291 -0.750535 -1.516830 
rclavicle 0.000000 0.000000 
rhumerus -30.580617 -7.118814 -86.840951 
rradius 37.253724 
rwrist 27.966542 
rhand -17.070464 -16.040265 
rfingers 0.000000 
rthumb 9.167343 -45.821003 
lclavicle 0.000000 0.000000 
lhumerus -27.300154 34.620545 77.655619 
lradius 24.714769 
lwrist -60.502250 
lhand -21.951341 1.912059 
lfingers 0.000000 
lthumb 4.455764 31.845192 
rfemur -21.694593 2.306836 27.269022 
rtibia 28.907749 
rfoot -19.767055 -7.822060 
rtoes -18.942484 
lfemur -34.392987 -1.721421 -15.023346 
ltibia 63.750093 
lfoot -8.872084 2.034980 
ltoes -36.632968 
71
root -8.439494 17.705133 -20.652580 10.480841 -7.970700 0.641079
lowerback -10.393278 0.485044 -2.775822 
upperback 2.781651 1.048328 -0.196479 
thorax 8.765854 0.365035 1.541686 
lowerneck -4.474900 -1.203908 2.692310 
upperneck 22.731026 -1.364057 -2.979428 
head 7.667941 -0.688306 -1.543588 
rclavicle 0.000000 0.000000 
rhumerus -30.197346 -7.082215 -87.051317 
rradius 37.284572 
rwrist 27.622382 
rhand -17.332240 -15.945092 
rfingers 0.000000 
rthumb 8.914724 -45.736739 
lclavicle 0.000000 0.000000 
lhumerus -28.219524 35.560187 76.582816 
lradius 24.391614 
lwrist -61.710305 
lhand -22.210392 2.063528 
lfingers 0.000000 
lthumb 4.205644 32.001775 
rfemur -21.459481 2.477396 27.268618 
rtibia 28.925662 
rfoot -19.989859 -7.747833 
rtoes -18.963623 
lfemur -34.986891 -2.352404 -14.785928 
ltibia 63.010152 
lfoot -9.200624 2.162266 
ltoes -36.700621 
72
root -8.446865 17.701714 -20.585545 10.393432 -8.220338 0.661937
lowerback -10.294791 0.526410 -2.708907 
upperback 2.835203 1.096113 -0.242773 
thorax 8.766352 0.392772 1.461957 
lowerneck -4.497130 -1.171992 2.693234 
upperneck 22.713478 -1.303899 -3.061833 
head 7.667000 -0.667413 -1.566327 
rclavicle 0.000000 0.000000 
rhumerus -29.888619 -6.640965 -87.384801 
rradius 37.455356 
rwrist 27.857784 
rhand -17.119513 -16.078677 
rfingers 0.000000 
rthumb 9.120060 -45.861473 
lclavicle 0.000000 0.000000 
lhumerus -29.328425 36.556677 75.311040 
lradius 24.224836 
lwrist -62.399888 
lhand -22.230161 1.984963 
lfingers 0.000000 
lthumb 4.186532 31.923600 
rfemur -21.124485 2.452335 27.234430 
rtibia 28.958058 
rfoot -20.174679 -7.476419 
rtoes -18.935765 
lfemur -35.415127 -3.077223 -14.597585 
ltibia 62.121764 
lfoot -9.523590 2.174899 
ltoes -35.807099 
73
root -8.459985 17.697244 -20.519406 10.327988 -8.364411 0.671440
lowerback -10.200314 0.588164 -2.736689 
upperback 2.879513 1.183100 -0.276776 
thorax 8.755873 0.434299 1.455374 
lowerneck -4.420367 -1.176867 2.638979 
upperneck 22.656368 -1.327665 -2.942634 
head 7.635307 -0.672376 -1.518115 
rclavicle 0.000000 0.000000 
rhumerus -29.565913 -6.335641 -87.676202 
rradius 37.492540 
rwrist 27.883369 
rhand -17.157351 -16.286219 
rfingers 0.000000 
rthumb 9.083532 -46.070604 
lclavicle 0.000000 0.000000 
lhumerus -30.411860 37.368791 74.033966 
lradius 23.974997 
lwrist -63.358030 
lhand -22.461519 2.117376 
lfingers 0.000000 
lthumb 3.963080 32.060234 
rfemur -20.777963 2.484676 27.243709 
rtibia 28.952222 
rfoot -20.376517 -7.317729 
rtoes -18.778591 
lfemur -35.834142 -3.841961 -14.339450 
ltibia 61.131927 
lfoot -9.762953 2.130396 
ltoes -35.684093 
